<svg xmlns="http://www.w3.org/2000/svg" width="306.77" height="296.99" viewBox="0 0 306.77 296.99">
  <title>home</title>
  <g id="e25b5e1a-082d-4eb9-8330-de8687b3e481" data-name="Layer 2">
    <g id="f76abdca-762d-4134-850d-653f1721318d" data-name="Capa 1">
      <path d="M302.93,144.9a14.63,14.63,0,0,0-1.2-20.93L164.63,4a17.1,17.1,0,0,0-22.29.25L4.77,130.37a14.54,14.54,0,0,0-.66,20.9l3.45,3.59c5.72,6,15,6.67,20.64,1.58l10.28-9.2V282a15,15,0,0,0,15,15h53.62a15,15,0,0,0,15-15v-94.3h68.4V282c-.12,8.26,5.79,15,14.05,15h56.83a15,15,0,0,0,15-15V149.13l6.34,5.57c3.5,3.07,10.84.61,16.4-5.51Z" style="fill: #fff"/>
    </g>
  </g>
</svg>
