<?xml version="1.0" encoding="UTF-8"?> <svg xmlns="http://www.w3.org/2000/svg" xmlns:xlink="http://www.w3.org/1999/xlink" width="53.88" height="42.64" viewBox="0 0 53.88 42.64"><defs><style>.cls-1{fill:url(#linear-gradient);}.cls-2{fill:url(#linear-gradient-2);}.cls-3{fill:url(#linear-gradient-3);}.cls-4{fill:url(#linear-gradient-4);}.cls-5{fill:url(#linear-gradient-5);}.cls-6{fill:url(#linear-gradient-6);}.cls-7{fill:none;stroke:#00468b;stroke-linecap:round;stroke-linejoin:round;stroke-width:1.08px;}</style><linearGradient id="linear-gradient" x1="13.74" y1="17.54" x2="28.9" y2="17.54" gradientTransform="matrix(1, 0, 0, -1, 0, 44.08)" gradientUnits="userSpaceOnUse"><stop offset="0" stop-color="#00b8b0"></stop><stop offset="1" stop-color="#9dd29c"></stop></linearGradient><linearGradient id="linear-gradient-2" x1="13.74" y1="11.04" x2="28.9" y2="11.04" xlink:href="#linear-gradient"></linearGradient><linearGradient id="linear-gradient-3" x1="13.74" y1="4.64" x2="28.9" y2="4.64" xlink:href="#linear-gradient"></linearGradient><linearGradient id="linear-gradient-4" x1="28.9" y1="17.54" x2="44.05" y2="17.54" xlink:href="#linear-gradient"></linearGradient><linearGradient id="linear-gradient-5" x1="28.9" y1="11.04" x2="44.05" y2="11.04" xlink:href="#linear-gradient"></linearGradient><linearGradient id="linear-gradient-6" x1="28.9" y1="4.64" x2="44.05" y2="4.64" xlink:href="#linear-gradient"></linearGradient></defs><title>Connect-Cause-Cloud-Application-Hosting</title><g id="Layer_2" data-name="Layer 2"><g id="Layer_1-2" data-name="Layer 1"><path class="cls-1" d="M27.94,29.74H14.64a.9.9,0,0,1-.9-.9v-4.6a.9.9,0,0,1,.9-.9h13.3a.9.9,0,0,1,.9.9v4.6C28.94,29.34,28.44,29.74,27.94,29.74Z"></path><path class="cls-2" d="M27.94,36.24H14.64a.9.9,0,0,1-.9-.9v-4.6a.9.9,0,0,1,.9-.9h13.3a.9.9,0,0,1,.9.9v4.6C28.94,35.74,28.44,36.24,27.94,36.24Z"></path><path class="cls-3" d="M27.94,42.64H14.64a.9.9,0,0,1-.9-.9v-4.6a.9.9,0,0,1,.9-.9h13.3a.9.9,0,0,1,.9.9v4.6C28.94,42.24,28.44,42.64,27.94,42.64Z"></path><path class="cls-4" d="M43.14,29.74H29.84a.9.9,0,0,1-.9-.9v-4.6a.9.9,0,0,1,.9-.9h13.3a.9.9,0,0,1,.9.9v4.6A.9.9,0,0,1,43.14,29.74Z"></path><path class="cls-5" d="M43.14,36.24H29.84a.9.9,0,0,1-.9-.9v-4.6a.9.9,0,0,1,.9-.9h13.3a.9.9,0,0,1,.9.9v4.6A1,1,0,0,1,43.14,36.24Z"></path><path class="cls-6" d="M43.14,42.64H29.84a.9.9,0,0,1-.9-.9v-4.6a.9.9,0,0,1,.9-.9h13.3a.9.9,0,0,1,.9.9v4.6A.9.9,0,0,1,43.14,42.64Z"></path><path class="cls-7" d="M22.84,7.14a13.26,13.26,0,0,1,4.6,4.2"></path><path class="cls-7" d="M9.44,34.84H7.94a7.38,7.38,0,0,1-7.4-7.4,7.29,7.29,0,0,1,4.8-6.9v-.2c0-.2-.1-.3-.1-.5a9.7,9.7,0,0,1-.1-1.7,12.25,12.25,0,0,1,12.2-12.2,11.92,11.92,0,0,1,5.6,1.4,13.3,13.3,0,0,1,24.9,6.5,13.55,13.55,0,0,1-.2,2A10,10,0,0,1,46,34.54"></path><path class="cls-7" d="M37.94,16a10.11,10.11,0,0,1,5.2-1.4,11.38,11.38,0,0,1,4.5,1"></path><line class="cls-7" x1="21.14" y1="25.04" x2="21.14" y2="25.04"></line><line class="cls-7" x1="24.24" y1="25.04" x2="24.24" y2="25.04"></line><line class="cls-7" x1="21.14" y1="31.54" x2="21.14" y2="31.54"></line><line class="cls-7" x1="24.24" y1="31.54" x2="24.24" y2="31.54"></line><line class="cls-7" x1="21.14" y1="38.04" x2="21.14" y2="38.04"></line><line class="cls-7" x1="24.24" y1="38.04" x2="24.24" y2="38.04"></line><line class="cls-7" x1="36.34" y1="25.04" x2="36.34" y2="25.04"></line><line class="cls-7" x1="39.34" y1="25.04" x2="39.34" y2="25.04"></line><line class="cls-7" x1="36.34" y1="31.54" x2="36.34" y2="31.54"></line><line class="cls-7" x1="39.34" y1="31.54" x2="39.34" y2="31.54"></line><path class="cls-7" d="M26.64,28.34H13.34a.9.9,0,0,1-.9-.9v-4.6a.9.9,0,0,1,.9-.9h13.3a.9.9,0,0,1,.9.9v4.6A.9.9,0,0,1,26.64,28.34Z"></path><path class="cls-7" d="M26.64,34.84H13.34a.9.9,0,0,1-.9-.9v-4.6a.9.9,0,0,1,.9-.9h13.3a.9.9,0,0,1,.9.9v4.6A1,1,0,0,1,26.64,34.84Z"></path><path class="cls-7" d="M26.64,41.24H13.34a.9.9,0,0,1-.9-.9v-4.6a.9.9,0,0,1,.9-.9h13.3a.9.9,0,0,1,.9.9v4.6A.9.9,0,0,1,26.64,41.24Z"></path><path class="cls-7" d="M41.84,28.34H28.54a.9.9,0,0,1-.9-.9v-4.6a.9.9,0,0,1,.9-.9h13.3a.9.9,0,0,1,.9.9v4.6A.9.9,0,0,1,41.84,28.34Z"></path><path class="cls-7" d="M41.84,34.84H28.54a.9.9,0,0,1-.9-.9v-4.6a.9.9,0,0,1,.9-.9h13.3a.9.9,0,0,1,.9.9v4.6A1,1,0,0,1,41.84,34.84Z"></path><path class="cls-7" d="M41.84,41.24H28.54a.9.9,0,0,1-.9-.9v-4.6a.9.9,0,0,1,.9-.9h13.3a.9.9,0,0,1,.9.9v4.6A.9.9,0,0,1,41.84,41.24Z"></path><line class="cls-7" x1="36.34" y1="38.04" x2="36.34" y2="38.04"></line><line class="cls-7" x1="39.34" y1="38.04" x2="39.34" y2="38.04"></line></g></g></svg> 