<?xml version="1.0" encoding="UTF-8"?> <svg xmlns="http://www.w3.org/2000/svg" xmlns:xlink="http://www.w3.org/1999/xlink" width="52.97" height="38.67" viewBox="0 0 52.97 38.67"><defs><style>.cls-1{fill:url(#linear-gradient);}.cls-2,.cls-3{fill:none;stroke:#00468b;stroke-linecap:round;stroke-linejoin:round;}.cls-2{stroke-width:1.17px;}.cls-3{stroke-width:0.92px;}</style><linearGradient id="linear-gradient" x1="18.8" y1="26.18" x2="35.57" y2="26.18" gradientTransform="matrix(1, 0, 0, -1, 0, 40.97)" gradientUnits="userSpaceOnUse"><stop offset="0" stop-color="#00b8b0"></stop><stop offset="1" stop-color="#9dd29c"></stop></linearGradient></defs><title>Connect-Cause-Google-Apps-Support</title><g id="Layer_2" data-name="Layer 2"><g id="Layer_1-2" data-name="Layer 1"><g id="surface1"><path class="cls-1" d="M27.18,6.48a8.3,8.3,0,1,0,8.3,9l.1-1.4h-7.8v2.6h4.7a5.66,5.66,0,0,1-5.4,3.8,5.8,5.8,0,1,1,0-11.6,5.52,5.52,0,0,1,3.9,1.6l1.8-1.9A8.74,8.74,0,0,0,27.18,6.48Z"></path></g><polyline class="cls-2" points="30.68 34.28 30.68 35.28 22.18 35.28 22.18 34.28"></polyline><path class="cls-2" d="M46.88,28V1.28a.68.68,0,0,0-.7-.7H7a1.11,1.11,0,0,0-1.1,1.1v26.4"></path><polyline class="cls-2" points="35.59 27.98 46.88 27.98 52.28 34.28 30.68 34.28"></polyline><polyline class="cls-2" points="22.18 34.28 0.58 34.28 5.98 27.98 35.59 27.98"></polyline><path class="cls-2" d="M1.68,34.28H.58V37a1.11,1.11,0,0,0,1.1,1.1h49.6a1.11,1.11,0,0,0,1.1-1.1v-2.7h-1.1"></path><g id="surface1-2" data-name="surface1"><path class="cls-3" d="M26.38,6a8.3,8.3,0,1,0,8.3,9l.1-1.4H27v2.6h4.7a5.66,5.66,0,0,1-5.4,3.8,5.8,5.8,0,0,1,0-11.6,5.52,5.52,0,0,1,3.9,1.6L32,8.08A8.23,8.23,0,0,0,26.38,6Z"></path></g></g></g></svg> 