<?xml version="1.0" encoding="UTF-8"?> <svg xmlns="http://www.w3.org/2000/svg" xmlns:xlink="http://www.w3.org/1999/xlink" width="48.54" height="38.28" viewBox="0 0 48.54 38.28"><defs><style>.cls-1{fill:url(#linear-gradient);}.cls-2{fill:url(#linear-gradient-2);}.cls-3{fill:url(#linear-gradient-3);}.cls-4{fill:url(#linear-gradient-4);}.cls-5{fill:url(#linear-gradient-5);}.cls-6{fill:url(#linear-gradient-6);}.cls-7{fill:url(#linear-gradient-7);}.cls-8{fill:url(#linear-gradient-8);}.cls-9{fill:none;stroke:#00468b;stroke-linecap:round;stroke-linejoin:round;stroke-width:1.08px;}</style><linearGradient id="linear-gradient" x1="24.33" y1="28.09" x2="34.4" y2="28.09" gradientTransform="matrix(1, 0, 0, -1, 0, 40.68)" gradientUnits="userSpaceOnUse"><stop offset="0" stop-color="#00b8b0"></stop><stop offset="1" stop-color="#9dd29c"></stop></linearGradient><linearGradient id="linear-gradient-2" x1="34.66" y1="10.99" x2="44.73" y2="10.99" xlink:href="#linear-gradient"></linearGradient><linearGradient id="linear-gradient-3" x1="13.75" y1="11.09" x2="23.83" y2="11.09" xlink:href="#linear-gradient"></linearGradient><linearGradient id="linear-gradient-4" x1="1.33" y1="30.54" x2="4.86" y2="30.54" xlink:href="#linear-gradient"></linearGradient><linearGradient id="linear-gradient-5" x1="5.23" y1="35.34" x2="8.76" y2="35.34" xlink:href="#linear-gradient"></linearGradient><linearGradient id="linear-gradient-6" x1="44.98" y1="29.74" x2="48.51" y2="29.74" xlink:href="#linear-gradient"></linearGradient><linearGradient id="linear-gradient-7" x1="23.26" y1="19.34" x2="26.79" y2="19.34" xlink:href="#linear-gradient"></linearGradient><linearGradient id="linear-gradient-8" x1="39.12" y1="34.74" x2="42.65" y2="34.74" xlink:href="#linear-gradient"></linearGradient></defs><title>Connect-Cause-Migration-Deployment</title><g id="Layer_2" data-name="Layer 2"><g id="Layer_1-2" data-name="Layer 1"><polygon class="cls-1" points="34.44 16.64 24.54 20.64 24.34 8.24 34.44 4.54 34.44 16.64"></polygon><polygon class="cls-2" points="44.74 33.74 34.94 37.74 34.64 25.44 44.74 21.64 44.74 33.74"></polygon><polygon class="cls-3" points="23.84 33.64 14.04 37.64 13.74 25.24 23.84 21.54 23.84 33.64"></polygon><circle class="cls-4" cx="3.04" cy="10.14" r="1.8"></circle><circle class="cls-5" cx="7.04" cy="5.34" r="1.8"></circle><circle class="cls-6" cx="46.74" cy="10.94" r="1.8"></circle><circle class="cls-7" cx="25.04" cy="21.34" r="1.8"></circle><circle class="cls-8" cx="40.84" cy="5.94" r="1.8"></circle><circle class="cls-9" cx="2.34" cy="10.54" r="1.8"></circle><polyline class="cls-9" points="13.74 15.24 5.24 15.24 3.24 12.04"></polyline><path class="cls-9" d="M8.24,6.64a1.75,1.75,0,1,0-2.1,1.3A1.66,1.66,0,0,0,8.24,6.64Z"></path><path class="cls-9" d="M23.74,22.84a1.75,1.75,0,1,0-1.3-2.1A1.66,1.66,0,0,0,23.74,22.84Z"></path><polyline class="cls-9" points="13.74 10.94 9.44 10.94 7.44 7.74"></polyline><path class="cls-9" d="M44.34,10.94a1.75,1.75,0,1,1,2.1,1.3A1.66,1.66,0,0,1,44.34,10.94Z"></path><polyline class="cls-9" points="34.64 15.24 43.14 15.24 45.14 12.04"></polyline><path class="cls-9" d="M40.14,6.64a1.75,1.75,0,1,1,2.1,1.3A1.69,1.69,0,0,1,40.14,6.64Z"></path><polyline class="cls-9" points="34.64 10.94 38.94 10.94 40.94 7.74"></polyline><polygon class="cls-9" points="13.74 37.74 3.44 33.74 3.44 21.14 13.74 25.14 13.74 37.74"></polygon><polyline class="cls-9" points="22.44 21.74 13.74 25.14 13.74 37.74 24.14 33.74 24.14 22.94"></polyline><polygon class="cls-9" points="3.44 33.74 13.74 29.74 13.74 17.14 3.44 21.14 3.44 33.74"></polygon><polyline class="cls-9" points="22.44 20.44 13.74 17.14 13.74 4.54 24.14 8.44 24.14 19.24"></polyline><line class="cls-9" x1="34.44" y1="4.54" x2="24.14" y2="0.54"></line><polyline class="cls-9" points="34.44 17.14 34.44 4.54 24.14 8.44"></polyline><polyline class="cls-9" points="24.14 0.54 13.74 4.54 13.74 17.14"></polyline><polyline class="cls-9" points="25.94 21.84 34.44 25.14 34.44 37.74 24.14 33.74"></polyline><line class="cls-9" x1="44.74" y1="21.14" x2="34.44" y2="17.14"></line><polygon class="cls-9" points="34.44 37.74 44.74 33.74 44.74 21.14 34.44 25.14 34.44 37.74"></polygon><line class="cls-9" x1="34.44" y1="17.14" x2="25.74" y2="20.44"></line></g></g></svg> 