<?xml version="1.0" encoding="UTF-8"?> <svg xmlns="http://www.w3.org/2000/svg" xmlns:xlink="http://www.w3.org/1999/xlink" width="53.16" height="43.94" viewBox="0 0 53.16 43.94"><defs><style>.cls-1{fill:url(#linear-gradient);}.cls-2,.cls-3{fill:none;stroke:#00468b;stroke-linecap:round;stroke-linejoin:round;}.cls-2{stroke-width:0.92px;}.cls-3{stroke-width:1.16px;}</style><linearGradient id="linear-gradient" x1="16.44" y1="15.83" x2="38.9" y2="15.83" gradientTransform="matrix(1, 0, 0, -1, 0, 46.36)" gradientUnits="userSpaceOnUse"><stop offset="0" stop-color="#00b8b0"></stop><stop offset="1" stop-color="#9dd29c"></stop></linearGradient></defs><title>connect-Cause-Office-365-Support</title><g id="Layer_2" data-name="Layer 2"><g id="Layer_1-2" data-name="Layer 1"><path class="cls-1" d="M16.48,22.78l15.3-5.3,7.2,1.9v22.3l-7.2,1.9-15.2-5.5L31.38,41a.35.35,0,0,0,.4-.4V21.08a.43.43,0,0,0-.4-.4h-.1l-9.8,2c-.2,0-.3.2-.3.4v13.2L16.48,38Z"></path><path class="cls-2" d="M15.28,22.68l15.3-5.3,7.2,1.9v22.3l-7.2,1.9L15.38,38l14.8,2.9a.35.35,0,0,0,.4-.4V21a.43.43,0,0,0-.4-.4h-.1l-9.8,2c-.2,0-.3.2-.3.4v13.2l-4.7,1.7Z"></path><path class="cls-3" d="M22.58,7.08a12.09,12.09,0,0,1,4.5,4.2"></path><path class="cls-3" d="M12.08,34.38H7.88a7.29,7.29,0,0,1-2.6-14.1v-.2c0-.2-.1-.3-.1-.5a9.7,9.7,0,0,1-.1-1.7,12,12,0,0,1,12.1-12,11.24,11.24,0,0,1,5.5,1.4,13.08,13.08,0,0,1,24.5,6.4,13.55,13.55,0,0,1-.2,2,9.92,9.92,0,0,1,5.6,8.9,10,10,0,0,1-10,10h-2.4"></path><path class="cls-3" d="M37.48,15.88a9.75,9.75,0,0,1,5.1-1.4,10.53,10.53,0,0,1,4.4,1"></path><path class="cls-3" d="M9.38,27a11.25,11.25,0,0,1-4.1-6.7"></path></g></g></svg> 