<?xml version="1.0" encoding="UTF-8"?> <svg xmlns="http://www.w3.org/2000/svg" xmlns:xlink="http://www.w3.org/1999/xlink" width="46.45" height="46.56" viewBox="0 0 46.45 46.56"><defs><style>.cls-1{fill:url(#linear-gradient);}.cls-2{fill:none;stroke:#00468b;stroke-linecap:round;stroke-linejoin:round;stroke-width:1.25px;}</style><linearGradient id="linear-gradient" x1="18.93" y1="25.17" x2="39.8" y2="25.17" gradientTransform="matrix(1, 0, 0, -1, 0, 49.05)" gradientUnits="userSpaceOnUse"><stop offset="0" stop-color="#00b8b0"></stop><stop offset="1" stop-color="#9dd29c"></stop></linearGradient></defs><title>Connect-Cause-Unified-Communications-VOIP</title><g id="Layer_2" data-name="Layer 2"><g id="Layer_1-2" data-name="Layer 1"><path class="cls-1" d="M38,14.52H20.63a1.69,1.69,0,0,0-1.7,1.71v10.5a1.69,1.69,0,0,0,1.7,1.7h0v4.8l8-4.8H38a1.69,1.69,0,0,0,1.7-1.7V16.23A1.58,1.58,0,0,0,38,14.52Z"></path><path class="cls-2" d="M.62,23.42a24.33,24.33,0,0,1,2-9.4,22.58,22.58,0,0,1,43.21,9.21A22.74,22.74,0,0,1,34,43.12a23,23,0,0,1-10.8,2.7"></path><path class="cls-2" d="M26.83,45c-7.6,3.41-16.4-3.7-18.8-6.09-3-2.91-13.6-16-2.3-23.7l6.5,8.5-3.9,3.79s0,1.8,4.3,6.41c4.6,4.4,6.4,4.4,6.4,4.4l3.8-3.9,8.5,6.5C31.23,40.93,28.83,44.12,26.83,45Z"></path><path class="cls-2" d="M35.43,13.22H18a1.69,1.69,0,0,0-1.7,1.7v10.5a1.68,1.68,0,0,0,1.7,1.7h0v4.81l8-4.8h9.4a1.69,1.69,0,0,0,1.7-1.7V14.92A1.58,1.58,0,0,0,35.43,13.22Z"></path><line class="cls-2" x1="20.53" y1="17.82" x2="26.73" y2="17.82"></line><line class="cls-2" x1="20.53" y1="22.23" x2="33.03" y2="22.23"></line></g></g></svg> 