<?xml version="1.0" encoding="UTF-8"?> <svg xmlns="http://www.w3.org/2000/svg" xmlns:xlink="http://www.w3.org/1999/xlink" width="42.52" height="45.99" viewBox="0 0 42.52 45.99"><defs><style>.cls-1{fill:url(#linear-gradient);}.cls-2{fill:url(#linear-gradient-2);}.cls-3{fill:none;stroke:#00468b;stroke-linecap:round;stroke-linejoin:round;stroke-width:1.08px;}</style><linearGradient id="linear-gradient" x1="17.71" y1="36.34" x2="28.36" y2="36.34" gradientTransform="matrix(1, 0, 0, -1, 0, 49.28)" gradientUnits="userSpaceOnUse"><stop offset="0" stop-color="#00b8b0"></stop><stop offset="1" stop-color="#9dd29c"></stop></linearGradient><linearGradient id="linear-gradient-2" x1="10.28" y1="36.29" x2="35.78" y2="36.29" xlink:href="#linear-gradient"></linearGradient></defs><title>Connect-Cause-Virtualization-Management</title><g id="Layer_2" data-name="Layer 2"><g id="Layer_1-2" data-name="Layer 1"><path class="cls-1" d="M28.38,12.94a5.3,5.3,0,1,1-5.3-5.3A5.34,5.34,0,0,1,28.38,12.94Z"></path><path class="cls-2" d="M33.58,12.94a12.25,12.25,0,0,0-.2-1.9l2.4-1.4-3.5-6.1-2.4,1.4A13.5,13.5,0,0,0,26.58,3V.34h-7.1v2.8A10.91,10.91,0,0,0,16.18,5l-2.4-1.4-3.5,6.1,2.4,1.4a11.08,11.08,0,0,0-.2,1.9,12.25,12.25,0,0,0,.2,1.9l-2.4,1.4,3.5,6.1,2.4-1.4a13.5,13.5,0,0,0,3.3,1.9v2.7h7.1v-2.8a10.91,10.91,0,0,0,3.3-1.9l2.4,1.4,3.5-6.1-2.4-1.4A11.08,11.08,0,0,0,33.58,12.94Z"></path><path class="cls-3" d="M26.68,13.14a5.3,5.3,0,1,1-5.3-5.3A5.34,5.34,0,0,1,26.68,13.14Z"></path><path class="cls-3" d="M31.88,13.14a12.25,12.25,0,0,0-.2-1.9l2.4-1.4-3.5-6.1-2.4,1.4a13.5,13.5,0,0,0-3.3-1.9V.54h-7.1v2.8a10.91,10.91,0,0,0-3.3,1.9l-2.4-1.4-3.5,6.1,2.4,1.4a11.08,11.08,0,0,0-.2,1.9,12.25,12.25,0,0,0,.2,1.9l-2.4,1.4,3.5,6.1,2.4-1.4a13.5,13.5,0,0,0,3.3,1.9v2.8h7.1v-2.8a10.91,10.91,0,0,0,3.3-1.9l2.4,1.4,3.5-6.1-2.4-1.4A13.55,13.55,0,0,0,31.88,13.14Z"></path><path class="cls-3" d="M42,44.84c-6.5-.9-14.7-.2-19.8.5-3.5.4-4.7-.4-4.7-.4-4.7-3-16.6-12.4-16.9-13.5a.45.45,0,0,1,.2-.6c.7-.6,2.1-.5,3-.5,2.5.1,4.3,1.5,6.2,3l3.1,2.5a18.56,18.56,0,0,0,4.3,2.5c2.8,1.1,5.3.7,9.3-.5l4.3-1.4a10.78,10.78,0,0,0-2.4-1.2,26,26,0,0,0-2.6-.3c-1.4,0-2.7,0-4.1-.1a4.53,4.53,0,0,1-3.3-1.4,3.84,3.84,0,0,1-.9-2.5c.2-1,1.2-.8,2-.7,2,.2,7.5.2,8.1.2,4.7.1,9.8-.5,14,2.2"></path><path class="cls-3" d="M15,32.54a6.63,6.63,0,0,0-3.5-1.6,9.11,9.11,0,0,0-4.3.5"></path></g></g></svg> 