<svg xmlns="http://www.w3.org/2000/svg" xmlns:xlink="http://www.w3.org/1999/xlink" viewBox="0 0 1841.78 2122.84"><defs><style>.cls-1{fill:none;}.cls-2{clip-path:url(#clip-path);}.cls-3{clip-path:url(#clip-path-2);}.cls-4{opacity:0.03;}.cls-5{clip-path:url(#clip-path-3);}.cls-6{fill:#fff;}.cls-7{clip-path:url(#clip-path-4);}.cls-8{clip-path:url(#clip-path-5);}.cls-9{clip-path:url(#clip-path-6);}.cls-10{clip-path:url(#clip-path-7);}.cls-11{clip-path:url(#clip-path-8);}.cls-12{clip-path:url(#clip-path-9);}.cls-13{clip-path:url(#clip-path-10);}.cls-14{clip-path:url(#clip-path-11);}.cls-15{clip-path:url(#clip-path-12);}.cls-16{clip-path:url(#clip-path-13);}.cls-17{clip-path:url(#clip-path-14);}.cls-18{clip-path:url(#clip-path-15);}.cls-19{clip-path:url(#clip-path-16);}.cls-20{clip-path:url(#clip-path-17);}.cls-21{clip-path:url(#clip-path-18);}.cls-22{clip-path:url(#clip-path-19);}.cls-23{clip-path:url(#clip-path-20);}.cls-24{clip-path:url(#clip-path-21);}</style><clipPath id="clip-path" transform="translate(-2.07 -2.07)"><rect class="cls-1" x="82.8" y="103.36" width="1720" height="660"/></clipPath><clipPath id="clip-path-2" transform="translate(-2.07 -2.07)"><rect class="cls-1" x="274.78" y="109.25" width="1265.35" height="1637.52"/></clipPath><clipPath id="clip-path-3" transform="translate(-2.07 -2.07)"><rect class="cls-1" x="1512.18" y="1247.49" width="333.73" height="381.67"/></clipPath><clipPath id="clip-path-4" transform="translate(-2.07 -2.07)"><rect class="cls-1" x="1389.2" y="1343.36" width="333.79" height="381.71"/></clipPath><clipPath id="clip-path-5" transform="translate(-2.07 -2.07)"><rect class="cls-1" x="230.16" y="2.98" width="267.91" height="306.28"/></clipPath><clipPath id="clip-path-6" transform="translate(-2.07 -2.07)"><rect class="cls-1" x="131.74" y="79.7" width="267.96" height="306.31"/></clipPath><clipPath id="clip-path-7" transform="translate(-2.07 -2.07)"><rect class="cls-1" x="888.92" y="699.27" width="170.46" height="170.46"/></clipPath><clipPath id="clip-path-8" transform="translate(-2.07 -2.07)"><rect class="cls-1" x="1282.05" y="564.82" width="509.36" height="530.46"/></clipPath><clipPath id="clip-path-9" transform="translate(-2.07 -2.07)"><rect class="cls-1" x="720.25" y="244.3" width="526.54" height="547.64"/></clipPath><clipPath id="clip-path-10" transform="translate(-2.07 -2.07)"><rect class="cls-1" x="652.2" y="1498.4" width="509.36" height="514.04"/></clipPath><clipPath id="clip-path-11" transform="translate(-2.07 -2.07)"><rect class="cls-1" x="140.87" y="975.79" width="509.36" height="514.04"/></clipPath><clipPath id="clip-path-12" transform="translate(-2.07 -2.07)"><rect class="cls-1" y="986.77" width="719.6" height="762.06"/></clipPath><clipPath id="clip-path-13" transform="translate(-2.07 -2.07)"><rect class="cls-1" x="329.2" y="899.15" width="898.3" height="856.58"/></clipPath><clipPath id="clip-path-14" transform="translate(-2.07 -2.07)"><rect class="cls-1" x="1498.98" y="56.57" width="273.37" height="197.41"/></clipPath><clipPath id="clip-path-15" transform="translate(-2.07 -2.07)"><rect class="cls-1" x="1256.89" y="77.41" width="225.47" height="146.88"/></clipPath><clipPath id="clip-path-16" transform="translate(-2.07 -2.07)"><rect class="cls-1" x="988.84" y="56.57" width="492.37" height="428.4"/></clipPath><clipPath id="clip-path-17" transform="translate(-2.07 -2.07)"><rect class="cls-1" x="734.19" y="56.57" width="455.87" height="389.9"/></clipPath><clipPath id="clip-path-18" transform="translate(-2.07 -2.07)"><rect class="cls-1" x="68.02" y="297.73" width="455.87" height="389.9"/></clipPath><clipPath id="clip-path-19" transform="translate(-2.07 -2.07)"><rect class="cls-1" x="1282.05" y="800.89" width="509.36" height="530.46"/></clipPath><clipPath id="clip-path-20" transform="translate(-2.07 -2.07)"><rect class="cls-1" x="1177.81" y="1074.81" width="128.77" height="128.77"/></clipPath><clipPath id="clip-path-21" transform="translate(-2.07 -2.07)"><rect class="cls-1" x="564.49" width="170.46" height="170.46"/></clipPath></defs><title>Background</title><g id="Layer_2" data-name="Layer 2"><g id="Layer_1-2" data-name="Layer 1"><g class="cls-2"><path class="cls-1" d="M553.51,1023.89c64.27.48,128.59,1.57,192.8-1.73,30-2,59.93-5,89.63-9.76,1.07-.17,2.14-.32,3.2-.44a87.27,87.27,0,0,1,20.71-2.31c75,0,150.42,3.12,225.41-.79,23.72-1.57,47.4-3.72,71-6.23,101.34-10.79,202-27.57,303.79-33.46l-16.87,1c9.72-.6,19.4-1.75,29.11-2.48,22.94-1.71,45.45-3,67.79.46V109.25H274.78v919.44q34.75-.37,69.52-1.11C414,1026.14,483.77,1023.37,553.51,1023.89Z" transform="translate(-2.07 -2.07)"/><path class="cls-1" d="M1521.58,1110.56a59.58,59.58,0,0,1-11.22-19c-5.57-.24-11.15-.2-16.72,0-14.62,1.06-29.22,2.46-43.87,3.31l16.87-1c-44.21,3-88.24,7.9-132.2,13.38-77.23,9.65-154.35,21-232.1,25.74-79.51,4.84-159.15,2.61-238.75,2.34-1.2.29-2.4.55-3.6.74-49.19,7.88-99.07,11.12-148.81,12.85-81.13,2.82-162.3-.57-243.44,1.21-64.32,1.42-128.63,3.29-193,4.11v592.52H1540.13V1124.9A66.26,66.26,0,0,1,1521.58,1110.56Z" transform="translate(-2.07 -2.07)"/><g class="cls-3"><g class="cls-4"><g class="cls-5"><path class="cls-6" d="M1795.73,1346.21l-5-5L1760,1310.43l-60.85-60.87a88.68,88.68,0,0,0-5.62,119.22,57,57,0,0,0,3.75,4.35l35.82,35.78a75.9,75.9,0,1,1-107.36,107.33l-35.76-35.75a44.34,44.34,0,0,0-62.73,62.69L1563,1579a164.82,164.82,0,0,0,232.76,0c64.16-64.2,64.16-168.6,0-232.77" transform="translate(-2.07 -2.07)"/></g></g><g class="cls-4"><g class="cls-7"><path class="cls-6" d="M1439.39,1626.35l5.06,5,30.76,30.8,60.85,60.87a88.7,88.7,0,0,0,5.62-119.24,43.4,43.4,0,0,0-3.79-4.38l-35.77-35.75a75.91,75.91,0,0,1,107.35-107.35l35.77,35.78a44.35,44.35,0,0,0,62.72-62.71l-35.81-35.78a164.75,164.75,0,0,0-232.76,0c-64.16,64.16-64.16,168.6,0,232.78" transform="translate(-2.07 -2.07)"/></g></g></g><path class="cls-1" d="M553.51,1023.89c64.27.48,128.59,1.57,192.8-1.73,30-2,59.93-5,89.63-9.76,1.07-.17,2.14-.32,3.2-.44a87.27,87.27,0,0,1,20.71-2.31c75,0,150.42,3.12,225.41-.79,23.72-1.57,47.4-3.72,71-6.23,101.34-10.79,202-27.57,303.79-33.46l-16.87,1c9.72-.6,19.4-1.75,29.11-2.48,22.94-1.71,45.45-3,67.79.46V109.25H274.78v919.44q34.75-.37,69.52-1.11C414,1026.14,483.77,1023.37,553.51,1023.89Z" transform="translate(-2.07 -2.07)"/><path class="cls-1" d="M1521.58,1110.56a59.58,59.58,0,0,1-11.22-19c-5.57-.24-11.15-.2-16.72,0-14.62,1.06-29.22,2.46-43.87,3.31l16.87-1c-44.21,3-88.24,7.9-132.2,13.38-77.23,9.65-154.35,21-232.1,25.74-79.51,4.84-159.15,2.61-238.75,2.34-1.2.29-2.4.55-3.6.74-49.19,7.88-99.07,11.12-148.81,12.85-81.13,2.82-162.3-.57-243.44,1.21-64.32,1.42-128.63,3.29-193,4.11v592.52H1540.13V1124.9A66.26,66.26,0,0,1,1521.58,1110.56Z" transform="translate(-2.07 -2.07)"/><g class="cls-4"><g class="cls-8"><path class="cls-6" d="M457.5,82.4l-4-4L428.87,53.76,380.17,5.05a71,71,0,0,0-4.49,95.41,44.78,44.78,0,0,0,3,3.48l28.66,28.64a60.74,60.74,0,1,1-85.91,85.89l-28.62-28.61A35.49,35.49,0,1,0,242.6,240l28.62,28.66a131.91,131.91,0,0,0,186.28,0c51.35-51.39,51.35-134.94,0-186.29" transform="translate(-2.07 -2.07)"/></g></g><g class="cls-4"><g class="cls-9"><path class="cls-6" d="M172.32,306.59l4.05,4L201,335.23l48.7,48.71a71,71,0,0,0,4.49-95.43,35.66,35.66,0,0,0-3-3.5L222.52,256.4a60.75,60.75,0,0,1,85.92-85.92l28.62,28.64a35.49,35.49,0,0,0,50.2-50.18L358.6,120.3a131.84,131.84,0,0,0-186.28,0c-51.35,51.35-51.35,134.93,0,186.29" transform="translate(-2.07 -2.07)"/></g></g><g class="cls-4"><g class="cls-10"><path class="cls-6" d="M974.15,718.47a66,66,0,1,0,66,66,66.1,66.1,0,0,0-66-66m0,149.19a83.17,83.17,0,1,1,83.16-83.17,83.26,83.26,0,0,1-83.16,83.17" transform="translate(-2.07 -2.07)"/></g></g><g class="cls-4"><g class="cls-11"><path class="cls-6" d="M1770.64,1076.78h0a60.32,60.32,0,0,1-85-2.26L1300.54,668.35a60.15,60.15,0,1,1,87.31-82.77l385.06,406.16a60.33,60.33,0,0,1-2.27,85" transform="translate(-2.07 -2.07)"/></g></g><g class="cls-4"><g class="cls-12"><path class="cls-6" d="M790.92,263.51a51.58,51.58,0,0,0-37.38,87L1138.6,756.67a51.58,51.58,0,1,0,74.87-71L828.41,279.53a51.17,51.17,0,0,0-36.06-16c-.48,0-1,0-1.43,0m385.13,526.37a68.51,68.51,0,0,1-49.89-21.42L741.1,362.3a68.72,68.72,0,0,1,99.75-94.56L1225.91,673.9a68.69,68.69,0,0,1-49.86,116" transform="translate(-2.07 -2.07)"/></g></g><g class="cls-4"><g class="cls-13"><path class="cls-6" d="M758,1519.16a60.15,60.15,0,1,0-87.31,82.77l385,406.17c.75.78,1.51,1.54,2.29,2.27h82.76a60.32,60.32,0,0,0,2.26-85Z" transform="translate(-2.07 -2.07)"/></g></g><g class="cls-4"><g class="cls-14"><path class="cls-6" d="M162.64,1066.36h0c.47-1,1-2,1.48-3l.36-.68c.41-.75.82-1.51,1.26-2.25.17-.3.35-.59.52-.88.4-.66.81-1.31,1.22-2,.21-.33.43-.64.64-1,.4-.6.81-1.19,1.23-1.78l.71-1c.42-.56.84-1.11,1.27-1.65l.76-1c.44-.53.89-1,1.34-1.56l.77-.88c.49-.53,1-1,1.49-1.56l.69-.71c.74-.72,1.48-1.42,2.24-2.09a58.12,58.12,0,0,1,15.44-9.76l.54-.25.11,0c9.41-3.94,19.68-5.44,30.35-5.44q33.74,0,67.45-.52l-45.83-48.35c-.75-.78-1.51-1.54-2.28-2.27H161.64a60.34,60.34,0,0,0-2.27,85.05Z" transform="translate(-2.07 -2.07)"/><path class="cls-6" d="M409.16,1151.52c-54.3,1.31-108.61,2.62-162.92,3l298.19,314.54a60.16,60.16,0,1,0,87.31-82.78Z" transform="translate(-2.07 -2.07)"/></g></g><g class="cls-4"><g class="cls-15"><path class="cls-6" d="M2.07,1163.71l552.76,583.06h162.7a59.68,59.68,0,0,0-9.5-13.28L2.07,988.84Z" transform="translate(-2.07 -2.07)"/></g></g><g class="cls-4"><g class="cls-16"><path class="cls-6" d="M370.73,1027c54.26-1.33,108.53-3.1,162.8-3.15L435,919.91a60.15,60.15,0,1,0-87.31,82.77Z" transform="translate(-2.07 -2.07)"/><path class="cls-6" d="M653.17,1150c-55.32.35-110.66-.91-166-.21l572.46,603.83h165.78Z" transform="translate(-2.07 -2.07)"/></g></g><g class="cls-4"><g class="cls-17"><path class="cls-6" d="M1666.55,233.21a60.15,60.15,0,1,0,87.31-82.77l-87-91.8H1501Z" transform="translate(-2.07 -2.07)"/></g></g><g class="cls-4"><g class="cls-18"><path class="cls-6" d="M1376.56,203.52a60.15,60.15,0,1,0,87.31-82.77l-39.13-41.27H1259Z" transform="translate(-2.07 -2.07)"/></g></g><g class="cls-4"><g class="cls-19"><path class="cls-6" d="M1375.4,464.2a60.15,60.15,0,1,0,87.31-82.77l-306-322.79H990.91Z" transform="translate(-2.07 -2.07)"/></g></g><g class="cls-4"><g class="cls-20"><path class="cls-6" d="M1084.26,425.71a60.15,60.15,0,0,0,87.3-82.78L902,58.64H736.26Z" transform="translate(-2.07 -2.07)"/></g></g><g class="cls-4"><g class="cls-21"><path class="cls-6" d="M418.09,666.87a60.16,60.16,0,0,0,87.31-82.78L235.87,299.8H70.09Z" transform="translate(-2.07 -2.07)"/></g></g><g class="cls-4"><rect class="cls-1" x="918.44" y="1266.26" width="898.3" height="856.58"/><path class="cls-6" d="M1026.31,1289.09A60.16,60.16,0,0,0,939,1371.87l712,751h165.78Z" transform="translate(-2.07 -2.07)"/></g><g class="cls-4"><g class="cls-22"><path class="cls-6" d="M1772.91,1227.82l-141.54-149.3c-1.85,14.57-10.49,27.83-20.87,37.78-12.29,11.79-29.91,16-46.44,15.5-15.39-.5-32.48-9.87-42.48-21.24a59.58,59.58,0,0,1-11.22-19c-5.57-.24-11.15-.2-16.72,0-4.87.35-9.74.74-14.61,1.14l206.57,217.89a60.15,60.15,0,0,0,87.31-82.77Z" transform="translate(-2.07 -2.07)"/><path class="cls-6" d="M1369.25,976.9c30.21-3.24,60.48-6,90.85-7.73l-16.87,1c9.72-.6,19.4-1.75,29.11-2.48,17.82-1.33,35.39-2.39,52.82-1.19L1387.85,821.66a60.15,60.15,0,1,0-87.31,82.77Z" transform="translate(-2.07 -2.07)"/></g></g><g class="cls-4"><g class="cls-23"><path class="cls-6" d="M1284.56,1113.65a49.47,49.47,0,1,1-89.67,11.06q-6.83.76-13.64,1.5a62.32,62.32,0,1,0,117-14.33Z" transform="translate(-2.07 -2.07)"/></g></g><g class="cls-4"><g class="cls-24"><path class="cls-6" d="M649.72,19.21a66,66,0,1,0,66,66,66.1,66.1,0,0,0-66-66m0,149.18a83.16,83.16,0,1,1,83.16-83.16,83.25,83.25,0,0,1-83.16,83.16" transform="translate(-2.07 -2.07)"/></g></g></g></g></g></svg>